<svg version="1.1" id="Layer_1" xmlns="http://www.w3.org/2000/svg" xmlns:xlink="http://www.w3.org/1999/xlink" x="0px" y="0px"
	 width="100%" viewBox="0 0 1000 1000" enable-background="new 0 0 1000 1000" xml:space="preserve">
<path fill="#06C755" opacity="1.000000" stroke="none" 
	d="
M656.000000,1001.000000 
	C437.333344,1001.000000 219.166672,1001.000000 1.000000,1001.000000 
	C1.000000,667.666687 1.000000,334.333344 1.000000,1.000000 
	C334.333344,1.000000 667.666687,1.000000 1001.000000,1.000000 
	C1001.000000,334.333344 1001.000000,667.666687 1001.000000,1001.000000 
	C886.166687,1001.000000 771.333313,1001.000000 656.000000,1001.000000 
M562.917664,779.421692 
	C610.857300,749.203491 657.102112,716.620605 700.732483,680.410217 
	C734.294861,652.555847 765.591309,622.434387 790.809998,586.631653 
	C836.651428,521.550964 848.020752,451.059906 820.726990,375.839508 
	C800.092224,318.970673 761.107239,276.378082 711.130432,243.551224 
	C650.362305,203.636261 582.881592,185.133301 510.675842,183.269958 
	C459.584259,181.951477 409.800690,189.864380 361.914154,208.053055 
	C301.248901,231.095459 249.453796,266.431488 211.713837,320.066528 
	C173.119110,374.916351 159.123581,435.513397 173.132797,501.548553 
	C184.172562,553.586670 211.389526,596.588440 250.209061,632.323364 
	C304.232819,682.054382 368.874023,709.115295 440.837952,720.051697 
	C450.944489,721.587585 461.050018,723.523193 469.291290,729.842590 
	C472.708344,732.462769 476.143738,736.845520 476.811310,740.882996 
	C478.095062,748.647217 478.198059,756.819946 477.365631,764.672119 
	C476.017090,777.392639 473.360931,789.968628 471.551849,802.647766 
	C469.812073,814.840881 475.789703,820.713623 487.666626,818.216370 
	C493.471893,816.995728 499.454010,815.352844 504.610840,812.536560 
	C524.012695,801.940186 543.108215,790.782776 562.917664,779.421692 
z"/>
<path fill="#FEFFFE" opacity="1.000000" stroke="none" 
	d="
M562.618042,779.628601 
	C543.108215,790.782776 524.012695,801.940186 504.610840,812.536560 
	C499.454010,815.352844 493.471893,816.995728 487.666626,818.216370 
	C475.789703,820.713623 469.812073,814.840881 471.551849,802.647766 
	C473.360931,789.968628 476.017090,777.392639 477.365631,764.672119 
	C478.198059,756.819946 478.095062,748.647217 476.811310,740.882996 
	C476.143738,736.845520 472.708344,732.462769 469.291290,729.842590 
	C461.050018,723.523193 450.944489,721.587585 440.837952,720.051697 
	C368.874023,709.115295 304.232819,682.054382 250.209061,632.323364 
	C211.389526,596.588440 184.172562,553.586670 173.132797,501.548553 
	C159.123581,435.513397 173.119110,374.916351 211.713837,320.066528 
	C249.453796,266.431488 301.248901,231.095459 361.914154,208.053055 
	C409.800690,189.864380 459.584259,181.951477 510.675842,183.269958 
	C582.881592,185.133301 650.362305,203.636261 711.130432,243.551224 
	C761.107239,276.378082 800.092224,318.970673 820.726990,375.839508 
	C848.020752,451.059906 836.651428,521.550964 790.809998,586.631653 
	C765.591309,622.434387 734.294861,652.555847 700.732483,680.410217 
	C657.102112,716.620605 610.857300,749.203491 562.618042,779.628601 
M537.759888,437.737579 
	C525.473083,421.141266 513.075439,404.625092 500.975464,387.893677 
	C497.858521,383.583679 494.537964,381.278961 488.991760,381.727203 
	C483.031311,382.208893 477.001678,381.813232 471.002472,381.842468 
	C464.843475,381.872467 462.895172,383.722076 462.854462,389.812836 
	C462.788757,399.644684 462.836060,409.477295 462.836029,419.309570 
	C462.835968,456.472290 462.828796,493.635010 462.842102,530.797729 
	C462.844818,538.420044 464.594971,540.134888 472.266388,540.160095 
	C478.099030,540.179260 483.931854,540.174805 489.764526,540.161255 
	C497.819427,540.142578 499.484985,538.514465 499.488739,530.562744 
	C499.500671,505.232117 499.493195,479.901459 499.493225,454.570831 
	C499.493225,452.861084 499.493256,451.151367 499.493256,448.036713 
	C501.598114,450.720520 502.750824,452.118774 503.827332,453.573456 
	C523.935669,480.746033 544.080811,507.891693 564.080383,535.144104 
	C566.702148,538.716675 569.615601,540.440247 574.111511,540.238037 
	C580.597778,539.946289 587.108032,540.239502 593.605713,540.135010 
	C599.132690,540.046082 601.119873,538.024597 601.147705,532.551147 
	C601.201111,522.052490 601.163879,511.553436 601.163940,501.054565 
	C601.163940,464.225159 601.168701,427.395721 601.159729,390.566315 
	C601.157959,383.336304 599.645447,381.854248 592.344666,381.838806 
	C586.012024,381.825409 579.679260,381.819916 573.346680,381.840363 
	C566.389709,381.862793 564.845581,383.396484 564.841614,390.375031 
	C564.827515,415.039062 564.836060,439.703125 564.836060,464.367157 
	C564.836060,467.127441 564.836060,469.887726 564.836060,474.236511 
	C555.324463,461.437012 546.739319,449.884094 537.759888,437.737579 
M697.500061,381.836823 
	C675.680725,381.836853 653.861450,381.824738 632.042114,381.844727 
	C625.788940,381.850433 623.855957,383.662262 623.852478,389.737579 
	C623.825195,437.207428 623.823975,484.677246 623.854614,532.147095 
	C623.858459,538.151062 625.898254,540.137634 632.048645,540.145142 
	C662.196167,540.182068 692.343750,540.184448 722.491211,540.140320 
	C728.207886,540.131897 730.347900,538.022705 730.458008,532.332092 
	C730.583679,525.838623 730.515381,519.340759 730.485291,512.845032 
	C730.449890,505.215576 728.729309,503.521729 720.963074,503.513977 
	C702.641357,503.495728 684.319702,503.514435 665.997986,503.497589 
	C664.244934,503.495972 662.492065,503.349365 660.880310,503.276459 
	C660.880310,494.909058 660.880310,487.161316 660.880310,479.163208 
	C663.090088,479.163208 664.912476,479.163208 666.734863,479.163208 
	C685.223083,479.163116 703.711426,479.183929 722.199585,479.151154 
	C728.327942,479.140259 730.352661,477.210236 730.463806,471.161896 
	C730.576965,465.001221 730.499329,458.836853 730.489929,452.674103 
	C730.476807,444.071716 728.938293,442.524597 720.221924,442.514435 
	C702.233337,442.493439 684.244812,442.507996 666.256226,442.507904 
	C664.486267,442.507874 662.716309,442.507935 660.796021,442.507935 
	C660.796021,434.096191 660.796021,426.350372 660.796021,418.163208 
	C662.889526,418.163208 664.683105,418.163269 666.476624,418.163239 
	C685.131409,418.163055 703.786316,418.183685 722.441040,418.150452 
	C728.302490,418.140015 730.370239,416.205597 730.461853,410.497375 
	C730.574097,403.503632 730.574463,396.505310 730.461975,389.511566 
	C730.369263,383.747650 728.347900,381.873383 722.484802,381.846344 
	C714.490051,381.809479 706.495056,381.836945 697.500061,381.836823 
M292.533173,540.166077 
	C319.514435,540.166077 346.495728,540.168396 373.476990,540.164856 
	C382.732544,540.163635 383.999817,538.860901 384.000549,529.401245 
	C384.001007,523.905029 384.008057,518.408875 383.998871,512.912659 
	C383.986176,505.307739 382.217834,503.514069 374.576385,503.505615 
	C356.255768,503.485382 337.935150,503.505432 319.614532,503.488159 
	C317.853241,503.486481 316.092072,503.337067 314.000671,503.241089 
	C314.000671,501.035339 314.000671,499.228638 314.000671,497.421906 
	C314.000671,461.779968 314.007538,426.138062 313.994354,390.496124 
	C313.991943,383.935669 312.081085,381.879211 305.994293,381.842285 
	C299.832153,381.804932 293.669556,381.833191 287.507172,381.834045 
	C278.530762,381.835266 277.167786,383.200745 277.167175,392.249664 
	C277.164307,436.718781 277.165863,481.187927 277.165863,525.657043 
	C277.165863,540.081970 277.249268,540.166077 292.533173,540.166077 
M403.836823,430.499939 
	C403.836884,464.324066 403.826233,498.148163 403.846832,531.972290 
	C403.850586,538.119446 405.762543,540.080017 411.852997,540.144226 
	C418.850281,540.218018 425.850555,540.247803 432.846558,540.126770 
	C438.098450,540.036011 440.140839,537.989258 440.144104,532.847351 
	C440.174561,484.860413 440.174042,436.873444 440.144440,388.886505 
	C440.141388,383.968933 438.103699,381.924896 433.215790,381.861237 
	C426.385437,381.772247 419.553101,381.827454 412.721649,381.839600 
	C405.366760,381.852631 403.852570,383.316620 403.842194,390.510529 
	C403.823486,403.506958 403.836853,416.503448 403.836823,430.499939 
z"/>
<path fill="#06C755" opacity="1.000000" stroke="none" 
	d="
M537.957031,438.034363 
	C546.739319,449.884094 555.324463,461.437012 564.836060,474.236511 
	C564.836060,469.887726 564.836060,467.127441 564.836060,464.367157 
	C564.836060,439.703125 564.827515,415.039062 564.841614,390.375031 
	C564.845581,383.396484 566.389709,381.862793 573.346680,381.840363 
	C579.679260,381.819916 586.012024,381.825409 592.344666,381.838806 
	C599.645447,381.854248 601.157959,383.336304 601.159729,390.566315 
	C601.168701,427.395721 601.163940,464.225159 601.163940,501.054565 
	C601.163879,511.553436 601.201111,522.052490 601.147705,532.551147 
	C601.119873,538.024597 599.132690,540.046082 593.605713,540.135010 
	C587.108032,540.239502 580.597778,539.946289 574.111511,540.238037 
	C569.615601,540.440247 566.702148,538.716675 564.080383,535.144104 
	C544.080811,507.891693 523.935669,480.746033 503.827332,453.573456 
	C502.750824,452.118774 501.598114,450.720520 499.493256,448.036713 
	C499.493256,451.151367 499.493225,452.861084 499.493225,454.570831 
	C499.493195,479.901459 499.500671,505.232117 499.488739,530.562744 
	C499.484985,538.514465 497.819427,540.142578 489.764526,540.161255 
	C483.931854,540.174805 478.099030,540.179260 472.266388,540.160095 
	C464.594971,540.134888 462.844818,538.420044 462.842102,530.797729 
	C462.828796,493.635010 462.835968,456.472290 462.836029,419.309570 
	C462.836060,409.477295 462.788757,399.644684 462.854462,389.812836 
	C462.895172,383.722076 464.843475,381.872467 471.002472,381.842468 
	C477.001678,381.813232 483.031311,382.208893 488.991760,381.727203 
	C494.537964,381.278961 497.858521,383.583679 500.975464,387.893677 
	C513.075439,404.625092 525.473083,421.141266 537.957031,438.034363 
z"/>
<path fill="#06C755" opacity="1.000000" stroke="none" 
	d="
M698.000122,381.836823 
	C706.495056,381.836945 714.490051,381.809479 722.484802,381.846344 
	C728.347900,381.873383 730.369263,383.747650 730.461975,389.511566 
	C730.574463,396.505310 730.574097,403.503632 730.461853,410.497375 
	C730.370239,416.205597 728.302490,418.140015 722.441040,418.150452 
	C703.786316,418.183685 685.131409,418.163055 666.476624,418.163239 
	C664.683105,418.163269 662.889526,418.163208 660.796021,418.163208 
	C660.796021,426.350372 660.796021,434.096191 660.796021,442.507935 
	C662.716309,442.507935 664.486267,442.507874 666.256226,442.507904 
	C684.244812,442.507996 702.233337,442.493439 720.221924,442.514435 
	C728.938293,442.524597 730.476807,444.071716 730.489929,452.674103 
	C730.499329,458.836853 730.576965,465.001221 730.463806,471.161896 
	C730.352661,477.210236 728.327942,479.140259 722.199585,479.151154 
	C703.711426,479.183929 685.223083,479.163116 666.734863,479.163208 
	C664.912476,479.163208 663.090088,479.163208 660.880310,479.163208 
	C660.880310,487.161316 660.880310,494.909058 660.880310,503.276459 
	C662.492065,503.349365 664.244934,503.495972 665.997986,503.497589 
	C684.319702,503.514435 702.641357,503.495728 720.963074,503.513977 
	C728.729309,503.521729 730.449890,505.215576 730.485291,512.845032 
	C730.515381,519.340759 730.583679,525.838623 730.458008,532.332092 
	C730.347900,538.022705 728.207886,540.131897 722.491211,540.140320 
	C692.343750,540.184448 662.196167,540.182068 632.048645,540.145142 
	C625.898254,540.137634 623.858459,538.151062 623.854614,532.147095 
	C623.823975,484.677246 623.825195,437.207428 623.852478,389.737579 
	C623.855957,383.662262 625.788940,381.850433 632.042114,381.844727 
	C653.861450,381.824738 675.680725,381.836853 698.000122,381.836823 
z"/>
<path fill="#07C756" opacity="1.000000" stroke="none" 
	d="
M292.041016,540.166077 
	C277.249268,540.166077 277.165863,540.081970 277.165863,525.657043 
	C277.165863,481.187927 277.164307,436.718781 277.167175,392.249664 
	C277.167786,383.200745 278.530762,381.835266 287.507172,381.834045 
	C293.669556,381.833191 299.832153,381.804932 305.994293,381.842285 
	C312.081085,381.879211 313.991943,383.935669 313.994354,390.496124 
	C314.007538,426.138062 314.000671,461.779968 314.000671,497.421906 
	C314.000671,499.228638 314.000671,501.035339 314.000671,503.241089 
	C316.092072,503.337067 317.853241,503.486481 319.614532,503.488159 
	C337.935150,503.505432 356.255768,503.485382 374.576385,503.505615 
	C382.217834,503.514069 383.986176,505.307739 383.998871,512.912659 
	C384.008057,518.408875 384.001007,523.905029 384.000549,529.401245 
	C383.999817,538.860901 382.732544,540.163635 373.476990,540.164856 
	C346.495728,540.168396 319.514435,540.166077 292.041016,540.166077 
z"/>
<path fill="#06C755" opacity="1.000000" stroke="none" 
	d="
M403.836823,429.999939 
	C403.836853,416.503448 403.823486,403.506958 403.842194,390.510529 
	C403.852570,383.316620 405.366760,381.852631 412.721649,381.839600 
	C419.553101,381.827454 426.385437,381.772247 433.215790,381.861237 
	C438.103699,381.924896 440.141388,383.968933 440.144440,388.886505 
	C440.174042,436.873444 440.174561,484.860413 440.144104,532.847351 
	C440.140839,537.989258 438.098450,540.036011 432.846558,540.126770 
	C425.850555,540.247803 418.850281,540.218018 411.852997,540.144226 
	C405.762543,540.080017 403.850586,538.119446 403.846832,531.972290 
	C403.826233,498.148163 403.836884,464.324066 403.836823,429.999939 
z"/>
</svg>